<?xml version="1.0" encoding="UTF-8"?>
<svg width="832px" height="856px" viewBox="0 0 832 856" version="1.1" xmlns="http://www.w3.org/2000/svg" xmlns:xlink="http://www.w3.org/1999/xlink">
    <title>Combined Shape</title>
    <g id="Page-1" stroke="none" stroke-width="1" fill="none" fill-rule="evenodd">
        <g id="Hot-Girl-Summer-Copy" transform="translate(-96.000000, -84.000000)" fill="#FFFFFF" fill-rule="nonzero">
            <path d="M226.795255,750.943535 L226.795255,756.4416 L170.962414,756.4416 L170.962414,652.661756 L169.230858,658.402716 L115.837611,641.857059 L146.000668,541.860609 L142.28755,547.441011 L96,515.796773 L153.83796,428.88576 L148.322001,433.414305 L113.185259,389.435957 L196.418282,321.120796 L185.782392,325.260298 L165.773838,272.42885 L265.188037,233.75034 L253.569388,234.573712 L249.674706,178.12231 L353.759395,170.745516 L344.362362,168.546496 L356.921527,113.407754 L456.348926,136.672949 L450.08356,133.007709 L478.000488,84 L564.718435,134.745024 L561.343058,131.076902 L602.176592,92.483097 L669.706474,165.880829 L668.268588,162.88952 L718.450413,138.082561 L761.771815,228.107773 L761.377818,225.588667 L816.523194,216.736185 L832.770497,320.70911 L833.926086,313.306997 L889.071463,322.160303 L872.582481,427.689812 L876.658523,419.215257 L926.840349,444.023451 L880.377125,540.578207 L887.166467,533.198737 L928,571.792233 L855.813234,650.253394 L864.552252,645.138196 L892.46918,694.147346 L801.727994,747.246596 L810.856948,745.109946 L823.416113,800.249099 L723.151977,823.711079 L730.877569,824.258621 L726.982278,880.708994 L626.618628,873.595062 L631.732466,875.585563 L611.723913,928.417217 L515.651581,891.038194 L521.72198,896.021652 L486.585157,940 L407.288165,874.916573 L411.203765,880.797507 L364.9152,912.441745 L308.232422,827.265987 L309.91808,832.852565 L256.496136,849.406456 L226.795255,750.943535 Z M233.346032,680.67396 L268.003462,669.826655 L294.938024,760.027301 L324.905056,739.332898 L376.120367,817.074332 L398.995086,788.153006 L469.974735,847 L482.670577,813.13756 L568.20503,846.754081 L570.711904,810.070804 L662.239037,816.623825 L654.003896,780.099672 L743.728583,758.8907 L725.138963,725.923074 L805.227727,678.580548 L777.797442,652.391197 L841.062701,582.930417 L807.312752,566.07566 L848,480.66527 L811.085173,474.678483 L825.593554,380.890311 L790.295479,386.61258 L775.793154,292.863673 L744.001069,308.738887 L703.606491,223.943088 L677.694055,248.683583 L615.18772,180.055002 L597.302528,211.771953 L518.176549,165 L509.999942,201.263148 L420.985738,180.222599 L423.569311,218.061902 L332.195578,224.603764 L345.706861,260.640004 L259.670427,294.452847 L282.818642,323.721353 L210.587978,383.607821 L241.073945,404.659735 L189,483.703094 L224.088967,494.686791 L196.888781,585.776053 L233.346032,585.776053 L233.346032,680.67396 Z" id="Combined-Shape"></path>
        </g>
    </g>
</svg>